<?xml version="1.0" encoding="utf-8" standalone="no"?>
<!DOCTYPE svg PUBLIC "-//W3C//DTD SVG 1.1//EN"
  "http://www.w3.org/Graphics/SVG/1.1/DTD/svg11.dtd">
<svg xmlns:xlink="http://www.w3.org/1999/xlink" width="738.58125pt" height="561.762812pt" viewBox="0 0 738.58125 561.762812" xmlns="http://www.w3.org/2000/svg" version="1.1">
 <metadata>
  <rdf:RDF xmlns:dc="http://purl.org/dc/elements/1.1/" xmlns:cc="http://creativecommons.org/ns#" xmlns:rdf="http://www.w3.org/1999/02/22-rdf-syntax-ns#">
   <cc:Work>
    <dc:type rdf:resource="http://purl.org/dc/dcmitype/StillImage"/>
    <dc:date>2024-08-08T15:41:13.769572</dc:date>
    <dc:format>image/svg+xml</dc:format>
    <dc:creator>
     <cc:Agent>
      <dc:title>Matplotlib v3.9.1, https://matplotlib.org/</dc:title>
     </cc:Agent>
    </dc:creator>
   </cc:Work>
  </rdf:RDF>
 </metadata>
 <defs>
  <style type="text/css">*{stroke-linejoin: round; stroke-linecap: butt}</style>
 </defs>
 <g id="figure_1">
  <g id="patch_1">
   <path d="M 0 561.762812 
L 738.58125 561.762812 
L 738.58125 -0 
L 0 -0 
z
" style="fill: #ffffff"/>
  </g>
  <g id="axes_1">
   <g id="patch_2">
    <path d="M 108.58125 419.758125 
L 666.58125 419.758125 
L 666.58125 87.118125 
L 108.58125 87.118125 
z
" style="fill: #ffffff"/>
   </g>
   <g id="patch_3">
    <path d="M 133.944886 419.758125 
L 142.093846 419.758125 
L 142.093846 102.958125 
L 133.944886 102.958125 
z
" clip-path="url(#pe93c306df5)" style="fill: #1f77b4"/>
   </g>
   <g id="patch_4">
    <path d="M 144.131086 419.758125 
L 152.280045 419.758125 
L 152.280045 102.958125 
L 144.131086 102.958125 
z
" clip-path="url(#pe93c306df5)" style="fill: #1f77b4"/>
   </g>
   <g id="patch_5">
    <path d="M 154.317285 419.758125 
L 162.466245 419.758125 
L 162.466245 102.958125 
L 154.317285 102.958125 
z
" clip-path="url(#pe93c306df5)" style="fill: #1f77b4"/>
   </g>
   <g id="patch_6">
    <path d="M 164.503484 419.758125 
L 172.652444 419.758125 
L 172.652444 102.958125 
L 164.503484 102.958125 
z
" clip-path="url(#pe93c306df5)" style="fill: #1f77b4"/>
   </g>
   <g id="patch_7">
    <path d="M 174.689684 419.758125 
L 182.838643 419.758125 
L 182.838643 102.958125 
L 174.689684 102.958125 
z
" clip-path="url(#pe93c306df5)" style="fill: #1f77b4"/>
   </g>
   <g id="patch_8">
    <path d="M 184.875883 419.758125 
L 193.024843 419.758125 
L 193.024843 102.958125 
L 184.875883 102.958125 
z
" clip-path="url(#pe93c306df5)" style="fill: #1f77b4"/>
   </g>
   <g id="patch_9">
    <path d="M 195.062082 419.758125 
L 203.211042 419.758125 
L 203.211042 102.958125 
L 195.062082 102.958125 
z
" clip-path="url(#pe93c306df5)" style="fill: #1f77b4"/>
   </g>
   <g id="patch_10">
    <path d="M 205.248282 419.758125 
L 213.397241 419.758125 
L 213.397241 102.958125 
L 205.248282 102.958125 
z
" clip-path="url(#pe93c306df5)" style="fill: #1f77b4"/>
   </g>
   <g id="patch_11">
    <path d="M 215.434481 419.758125 
L 223.583441 419.758125 
L 223.583441 102.958125 
L 215.434481 102.958125 
z
" clip-path="url(#pe93c306df5)" style="fill: #1f77b4"/>
   </g>
   <g id="patch_12">
    <path d="M 225.62068 419.758125 
L 233.76964 419.758125 
L 233.76964 102.958125 
L 225.62068 102.958125 
z
" clip-path="url(#pe93c306df5)" style="fill: #1f77b4"/>
   </g>
   <g id="patch_13">
    <path d="M 235.80688 419.758125 
L 243.955839 419.758125 
L 243.955839 102.958125 
L 235.80688 102.958125 
z
" clip-path="url(#pe93c306df5)" style="fill: #1f77b4"/>
   </g>
   <g id="patch_14">
    <path d="M 245.993079 419.758125 
L 254.142039 419.758125 
L 254.142039 102.958125 
L 245.993079 102.958125 
z
" clip-path="url(#pe93c306df5)" style="fill: #1f77b4"/>
   </g>
   <g id="patch_15">
    <path d="M 256.179278 419.758125 
L 264.328238 419.758125 
L 264.328238 102.958125 
L 256.179278 102.958125 
z
" clip-path="url(#pe93c306df5)" style="fill: #1f77b4"/>
   </g>
   <g id="patch_16">
    <path d="M 266.365478 419.758125 
L 274.514437 419.758125 
L 274.514437 102.958125 
L 266.365478 102.958125 
z
" clip-path="url(#pe93c306df5)" style="fill: #1f77b4"/>
   </g>
   <g id="patch_17">
    <path d="M 276.551677 419.758125 
L 284.700637 419.758125 
L 284.700637 102.958125 
L 276.551677 102.958125 
z
" clip-path="url(#pe93c306df5)" style="fill: #1f77b4"/>
   </g>
   <g id="patch_18">
    <path d="M 286.737877 419.758125 
L 294.886836 419.758125 
L 294.886836 102.958125 
L 286.737877 102.958125 
z
" clip-path="url(#pe93c306df5)" style="fill: #1f77b4"/>
   </g>
   <g id="patch_19">
    <path d="M 296.924076 419.758125 
L 305.073035 419.758125 
L 305.073035 102.958125 
L 296.924076 102.958125 
z
" clip-path="url(#pe93c306df5)" style="fill: #1f77b4"/>
   </g>
   <g id="patch_20">
    <path d="M 307.110275 419.758125 
L 315.259235 419.758125 
L 315.259235 102.958125 
L 307.110275 102.958125 
z
" clip-path="url(#pe93c306df5)" style="fill: #1f77b4"/>
   </g>
   <g id="patch_21">
    <path d="M 317.296475 419.758125 
L 325.445434 419.758125 
L 325.445434 102.958125 
L 317.296475 102.958125 
z
" clip-path="url(#pe93c306df5)" style="fill: #1f77b4"/>
   </g>
   <g id="patch_22">
    <path d="M 327.482674 419.758125 
L 335.631633 419.758125 
L 335.631633 102.958125 
L 327.482674 102.958125 
z
" clip-path="url(#pe93c306df5)" style="fill: #1f77b4"/>
   </g>
   <g id="patch_23">
    <path d="M 337.668873 419.758125 
L 345.817833 419.758125 
L 345.817833 102.958125 
L 337.668873 102.958125 
z
" clip-path="url(#pe93c306df5)" style="fill: #1f77b4"/>
   </g>
   <g id="patch_24">
    <path d="M 347.855073 419.758125 
L 356.004032 419.758125 
L 356.004032 102.958125 
L 347.855073 102.958125 
z
" clip-path="url(#pe93c306df5)" style="fill: #1f77b4"/>
   </g>
   <g id="patch_25">
    <path d="M 358.041272 419.758125 
L 366.190231 419.758125 
L 366.190231 102.958125 
L 358.041272 102.958125 
z
" clip-path="url(#pe93c306df5)" style="fill: #1f77b4"/>
   </g>
   <g id="patch_26">
    <path d="M 368.227471 419.758125 
L 376.376431 419.758125 
L 376.376431 102.958125 
L 368.227471 102.958125 
z
" clip-path="url(#pe93c306df5)" style="fill: #1f77b4"/>
   </g>
   <g id="patch_27">
    <path d="M 378.413671 419.758125 
L 386.56263 419.758125 
L 386.56263 102.958125 
L 378.413671 102.958125 
z
" clip-path="url(#pe93c306df5)" style="fill: #1f77b4"/>
   </g>
   <g id="patch_28">
    <path d="M 388.59987 419.758125 
L 396.748829 419.758125 
L 396.748829 102.958125 
L 388.59987 102.958125 
z
" clip-path="url(#pe93c306df5)" style="fill: #1f77b4"/>
   </g>
   <g id="patch_29">
    <path d="M 398.786069 419.758125 
L 406.935029 419.758125 
L 406.935029 102.958125 
L 398.786069 102.958125 
z
" clip-path="url(#pe93c306df5)" style="fill: #1f77b4"/>
   </g>
   <g id="patch_30">
    <path d="M 408.972269 419.758125 
L 417.121228 419.758125 
L 417.121228 102.958125 
L 408.972269 102.958125 
z
" clip-path="url(#pe93c306df5)" style="fill: #1f77b4"/>
   </g>
   <g id="patch_31">
    <path d="M 419.158468 419.758125 
L 427.307427 419.758125 
L 427.307427 102.958125 
L 419.158468 102.958125 
z
" clip-path="url(#pe93c306df5)" style="fill: #1f77b4"/>
   </g>
   <g id="patch_32">
    <path d="M 429.344667 419.758125 
L 437.493627 419.758125 
L 437.493627 102.958125 
L 429.344667 102.958125 
z
" clip-path="url(#pe93c306df5)" style="fill: #1f77b4"/>
   </g>
   <g id="patch_33">
    <path d="M 439.530867 419.758125 
L 447.679826 419.758125 
L 447.679826 102.958125 
L 439.530867 102.958125 
z
" clip-path="url(#pe93c306df5)" style="fill: #1f77b4"/>
   </g>
   <g id="patch_34">
    <path d="M 449.717066 419.758125 
L 457.866025 419.758125 
L 457.866025 102.958125 
L 449.717066 102.958125 
z
" clip-path="url(#pe93c306df5)" style="fill: #1f77b4"/>
   </g>
   <g id="patch_35">
    <path d="M 459.903265 419.758125 
L 468.052225 419.758125 
L 468.052225 102.958125 
L 459.903265 102.958125 
z
" clip-path="url(#pe93c306df5)" style="fill: #1f77b4"/>
   </g>
   <g id="patch_36">
    <path d="M 470.089465 419.758125 
L 478.238424 419.758125 
L 478.238424 102.958125 
L 470.089465 102.958125 
z
" clip-path="url(#pe93c306df5)" style="fill: #1f77b4"/>
   </g>
   <g id="patch_37">
    <path d="M 480.275664 419.758125 
L 488.424623 419.758125 
L 488.424623 102.958125 
L 480.275664 102.958125 
z
" clip-path="url(#pe93c306df5)" style="fill: #1f77b4"/>
   </g>
   <g id="patch_38">
    <path d="M 490.461863 419.758125 
L 498.610823 419.758125 
L 498.610823 102.958125 
L 490.461863 102.958125 
z
" clip-path="url(#pe93c306df5)" style="fill: #1f77b4"/>
   </g>
   <g id="patch_39">
    <path d="M 500.648063 419.758125 
L 508.797022 419.758125 
L 508.797022 102.958125 
L 500.648063 102.958125 
z
" clip-path="url(#pe93c306df5)" style="fill: #1f77b4"/>
   </g>
   <g id="patch_40">
    <path d="M 510.834262 419.758125 
L 518.983222 419.758125 
L 518.983222 102.958125 
L 510.834262 102.958125 
z
" clip-path="url(#pe93c306df5)" style="fill: #1f77b4"/>
   </g>
   <g id="patch_41">
    <path d="M 521.020461 419.758125 
L 529.169421 419.758125 
L 529.169421 102.958125 
L 521.020461 102.958125 
z
" clip-path="url(#pe93c306df5)" style="fill: #1f77b4"/>
   </g>
   <g id="patch_42">
    <path d="M 531.206661 419.758125 
L 539.35562 419.758125 
L 539.35562 102.958125 
L 531.206661 102.958125 
z
" clip-path="url(#pe93c306df5)" style="fill: #1f77b4"/>
   </g>
   <g id="patch_43">
    <path d="M 541.39286 419.758125 
L 549.54182 419.758125 
L 549.54182 102.958125 
L 541.39286 102.958125 
z
" clip-path="url(#pe93c306df5)" style="fill: #1f77b4"/>
   </g>
   <g id="patch_44">
    <path d="M 551.579059 419.758125 
L 559.728019 419.758125 
L 559.728019 102.958125 
L 551.579059 102.958125 
z
" clip-path="url(#pe93c306df5)" style="fill: #1f77b4"/>
   </g>
   <g id="patch_45">
    <path d="M 561.765259 419.758125 
L 569.914218 419.758125 
L 569.914218 102.958125 
L 561.765259 102.958125 
z
" clip-path="url(#pe93c306df5)" style="fill: #1f77b4"/>
   </g>
   <g id="patch_46">
    <path d="M 571.951458 419.758125 
L 580.100418 419.758125 
L 580.100418 102.958125 
L 571.951458 102.958125 
z
" clip-path="url(#pe93c306df5)" style="fill: #1f77b4"/>
   </g>
   <g id="patch_47">
    <path d="M 582.137657 419.758125 
L 590.286617 419.758125 
L 590.286617 102.958125 
L 582.137657 102.958125 
z
" clip-path="url(#pe93c306df5)" style="fill: #1f77b4"/>
   </g>
   <g id="patch_48">
    <path d="M 592.323857 419.758125 
L 600.472816 419.758125 
L 600.472816 102.958125 
L 592.323857 102.958125 
z
" clip-path="url(#pe93c306df5)" style="fill: #1f77b4"/>
   </g>
   <g id="patch_49">
    <path d="M 602.510056 419.758125 
L 610.659016 419.758125 
L 610.659016 102.958125 
L 602.510056 102.958125 
z
" clip-path="url(#pe93c306df5)" style="fill: #1f77b4"/>
   </g>
   <g id="patch_50">
    <path d="M 612.696255 419.758125 
L 620.845215 419.758125 
L 620.845215 102.958125 
L 612.696255 102.958125 
z
" clip-path="url(#pe93c306df5)" style="fill: #1f77b4"/>
   </g>
   <g id="patch_51">
    <path d="M 622.882455 419.758125 
L 631.031414 419.758125 
L 631.031414 102.958125 
L 622.882455 102.958125 
z
" clip-path="url(#pe93c306df5)" style="fill: #1f77b4"/>
   </g>
   <g id="patch_52">
    <path d="M 633.068654 419.758125 
L 641.217614 419.758125 
L 641.217614 102.958125 
L 633.068654 102.958125 
z
" clip-path="url(#pe93c306df5)" style="fill: #1f77b4"/>
   </g>
   <g id="matplotlib.axis_1">
    <g id="xtick_1">
     <g id="line2d_1">
      <defs>
       <path id="m6711e55d1a" d="M 0 0 
L 0 3.5 
" style="stroke: #000000; stroke-width: 0.8"/>
      </defs>
      <g>
       <use xlink:href="#m6711e55d1a" x="138.019366" y="419.758125" style="stroke: #000000; stroke-width: 0.8"/>
      </g>
     </g>
     <g id="text_1">
      <!--  boo  -->
      <g transform="translate(140.778741 451.700312) rotate(-90) scale(0.1 -0.1)">
       <defs>
        <path id="DejaVuSans-20" transform="scale(0.015625)"/>
        <path id="DejaVuSans-62" d="M 3116 1747 
Q 3116 2381 2855 2742 
Q 2594 3103 2138 3103 
Q 1681 3103 1420 2742 
Q 1159 2381 1159 1747 
Q 1159 1113 1420 752 
Q 1681 391 2138 391 
Q 2594 391 2855 752 
Q 3116 1113 3116 1747 
z
M 1159 2969 
Q 1341 3281 1617 3432 
Q 1894 3584 2278 3584 
Q 2916 3584 3314 3078 
Q 3713 2572 3713 1747 
Q 3713 922 3314 415 
Q 2916 -91 2278 -91 
Q 1894 -91 1617 61 
Q 1341 213 1159 525 
L 1159 0 
L 581 0 
L 581 4863 
L 1159 4863 
L 1159 2969 
z
" transform="scale(0.015625)"/>
        <path id="DejaVuSans-6f" d="M 1959 3097 
Q 1497 3097 1228 2736 
Q 959 2375 959 1747 
Q 959 1119 1226 758 
Q 1494 397 1959 397 
Q 2419 397 2687 759 
Q 2956 1122 2956 1747 
Q 2956 2369 2687 2733 
Q 2419 3097 1959 3097 
z
M 1959 3584 
Q 2709 3584 3137 3096 
Q 3566 2609 3566 1747 
Q 3566 888 3137 398 
Q 2709 -91 1959 -91 
Q 1206 -91 779 398 
Q 353 888 353 1747 
Q 353 2609 779 3096 
Q 1206 3584 1959 3584 
z
" transform="scale(0.015625)"/>
       </defs>
       <use xlink:href="#DejaVuSans-20"/>
       <use xlink:href="#DejaVuSans-62" x="31.787109"/>
       <use xlink:href="#DejaVuSans-6f" x="95.263672"/>
       <use xlink:href="#DejaVuSans-6f" x="156.445312"/>
       <use xlink:href="#DejaVuSans-20" x="217.626953"/>
      </g>
     </g>
    </g>
    <g id="xtick_2">
     <g id="line2d_2">
      <g>
       <use xlink:href="#m6711e55d1a" x="148.205565" y="419.758125" style="stroke: #000000; stroke-width: 0.8"/>
      </g>
     </g>
     <g id="text_2">
      <!--  day  -->
      <g transform="translate(150.96494 451.509687) rotate(-90) scale(0.1 -0.1)">
       <defs>
        <path id="DejaVuSans-64" d="M 2906 2969 
L 2906 4863 
L 3481 4863 
L 3481 0 
L 2906 0 
L 2906 525 
Q 2725 213 2448 61 
Q 2172 -91 1784 -91 
Q 1150 -91 751 415 
Q 353 922 353 1747 
Q 353 2572 751 3078 
Q 1150 3584 1784 3584 
Q 2172 3584 2448 3432 
Q 2725 3281 2906 2969 
z
M 947 1747 
Q 947 1113 1208 752 
Q 1469 391 1925 391 
Q 2381 391 2643 752 
Q 2906 1113 2906 1747 
Q 2906 2381 2643 2742 
Q 2381 3103 1925 3103 
Q 1469 3103 1208 2742 
Q 947 2381 947 1747 
z
" transform="scale(0.015625)"/>
        <path id="DejaVuSans-61" d="M 2194 1759 
Q 1497 1759 1228 1600 
Q 959 1441 959 1056 
Q 959 750 1161 570 
Q 1363 391 1709 391 
Q 2188 391 2477 730 
Q 2766 1069 2766 1631 
L 2766 1759 
L 2194 1759 
z
M 3341 1997 
L 3341 0 
L 2766 0 
L 2766 531 
Q 2569 213 2275 61 
Q 1981 -91 1556 -91 
Q 1019 -91 701 211 
Q 384 513 384 1019 
Q 384 1609 779 1909 
Q 1175 2209 1959 2209 
L 2766 2209 
L 2766 2266 
Q 2766 2663 2505 2880 
Q 2244 3097 1772 3097 
Q 1472 3097 1187 3025 
Q 903 2953 641 2809 
L 641 3341 
Q 956 3463 1253 3523 
Q 1550 3584 1831 3584 
Q 2591 3584 2966 3190 
Q 3341 2797 3341 1997 
z
" transform="scale(0.015625)"/>
        <path id="DejaVuSans-79" d="M 2059 -325 
Q 1816 -950 1584 -1140 
Q 1353 -1331 966 -1331 
L 506 -1331 
L 506 -850 
L 844 -850 
Q 1081 -850 1212 -737 
Q 1344 -625 1503 -206 
L 1606 56 
L 191 3500 
L 800 3500 
L 1894 763 
L 2988 3500 
L 3597 3500 
L 2059 -325 
z
" transform="scale(0.015625)"/>
       </defs>
       <use xlink:href="#DejaVuSans-20"/>
       <use xlink:href="#DejaVuSans-64" x="31.787109"/>
       <use xlink:href="#DejaVuSans-61" x="95.263672"/>
       <use xlink:href="#DejaVuSans-79" x="156.542969"/>
       <use xlink:href="#DejaVuSans-20" x="215.722656"/>
      </g>
     </g>
    </g>
    <g id="xtick_3">
     <g id="line2d_3">
      <g>
       <use xlink:href="#m6711e55d1a" x="158.391765" y="419.758125" style="stroke: #000000; stroke-width: 0.8"/>
      </g>
     </g>
     <g id="text_3">
      <!--  it  -->
      <g transform="translate(161.15114 439.812812) rotate(-90) scale(0.1 -0.1)">
       <defs>
        <path id="DejaVuSans-69" d="M 603 3500 
L 1178 3500 
L 1178 0 
L 603 0 
L 603 3500 
z
M 603 4863 
L 1178 4863 
L 1178 4134 
L 603 4134 
L 603 4863 
z
" transform="scale(0.015625)"/>
        <path id="DejaVuSans-74" d="M 1172 4494 
L 1172 3500 
L 2356 3500 
L 2356 3053 
L 1172 3053 
L 1172 1153 
Q 1172 725 1289 603 
Q 1406 481 1766 481 
L 2356 481 
L 2356 0 
L 1766 0 
Q 1100 0 847 248 
Q 594 497 594 1153 
L 594 3053 
L 172 3053 
L 172 3500 
L 594 3500 
L 594 4494 
L 1172 4494 
z
" transform="scale(0.015625)"/>
       </defs>
       <use xlink:href="#DejaVuSans-20"/>
       <use xlink:href="#DejaVuSans-69" x="31.787109"/>
       <use xlink:href="#DejaVuSans-74" x="59.570312"/>
       <use xlink:href="#DejaVuSans-20" x="98.779297"/>
      </g>
     </g>
    </g>
    <g id="xtick_4">
     <g id="line2d_4">
      <g>
       <use xlink:href="#m6711e55d1a" x="168.577964" y="419.758125" style="stroke: #000000; stroke-width: 0.8"/>
      </g>
     </g>
     <g id="text_4">
      <!--  wee  -->
      <g transform="translate(171.337339 453.59875) rotate(-90) scale(0.1 -0.1)">
       <defs>
        <path id="DejaVuSans-77" d="M 269 3500 
L 844 3500 
L 1563 769 
L 2278 3500 
L 2956 3500 
L 3675 769 
L 4391 3500 
L 4966 3500 
L 4050 0 
L 3372 0 
L 2619 2869 
L 1863 0 
L 1184 0 
L 269 3500 
z
" transform="scale(0.015625)"/>
        <path id="DejaVuSans-65" d="M 3597 1894 
L 3597 1613 
L 953 1613 
Q 991 1019 1311 708 
Q 1631 397 2203 397 
Q 2534 397 2845 478 
Q 3156 559 3463 722 
L 3463 178 
Q 3153 47 2828 -22 
Q 2503 -91 2169 -91 
Q 1331 -91 842 396 
Q 353 884 353 1716 
Q 353 2575 817 3079 
Q 1281 3584 2069 3584 
Q 2775 3584 3186 3129 
Q 3597 2675 3597 1894 
z
M 3022 2063 
Q 3016 2534 2758 2815 
Q 2500 3097 2075 3097 
Q 1594 3097 1305 2825 
Q 1016 2553 972 2059 
L 3022 2063 
z
" transform="scale(0.015625)"/>
       </defs>
       <use xlink:href="#DejaVuSans-20"/>
       <use xlink:href="#DejaVuSans-77" x="31.787109"/>
       <use xlink:href="#DejaVuSans-65" x="113.574219"/>
       <use xlink:href="#DejaVuSans-65" x="175.097656"/>
       <use xlink:href="#DejaVuSans-20" x="236.621094"/>
      </g>
     </g>
    </g>
    <g id="xtick_5">
     <g id="line2d_5">
      <g>
       <use xlink:href="#m6711e55d1a" x="178.764163" y="419.758125" style="stroke: #000000; stroke-width: 0.8"/>
      </g>
     </g>
     <g id="text_5">
      <!--  stu  -->
      <g transform="translate(181.523538 448.581562) rotate(-90) scale(0.1 -0.1)">
       <defs>
        <path id="DejaVuSans-73" d="M 2834 3397 
L 2834 2853 
Q 2591 2978 2328 3040 
Q 2066 3103 1784 3103 
Q 1356 3103 1142 2972 
Q 928 2841 928 2578 
Q 928 2378 1081 2264 
Q 1234 2150 1697 2047 
L 1894 2003 
Q 2506 1872 2764 1633 
Q 3022 1394 3022 966 
Q 3022 478 2636 193 
Q 2250 -91 1575 -91 
Q 1294 -91 989 -36 
Q 684 19 347 128 
L 347 722 
Q 666 556 975 473 
Q 1284 391 1588 391 
Q 1994 391 2212 530 
Q 2431 669 2431 922 
Q 2431 1156 2273 1281 
Q 2116 1406 1581 1522 
L 1381 1569 
Q 847 1681 609 1914 
Q 372 2147 372 2553 
Q 372 3047 722 3315 
Q 1072 3584 1716 3584 
Q 2034 3584 2315 3537 
Q 2597 3491 2834 3397 
z
" transform="scale(0.015625)"/>
        <path id="DejaVuSans-75" d="M 544 1381 
L 544 3500 
L 1119 3500 
L 1119 1403 
Q 1119 906 1312 657 
Q 1506 409 1894 409 
Q 2359 409 2629 706 
Q 2900 1003 2900 1516 
L 2900 3500 
L 3475 3500 
L 3475 0 
L 2900 0 
L 2900 538 
Q 2691 219 2414 64 
Q 2138 -91 1772 -91 
Q 1169 -91 856 284 
Q 544 659 544 1381 
z
M 1991 3584 
L 1991 3584 
z
" transform="scale(0.015625)"/>
       </defs>
       <use xlink:href="#DejaVuSans-20"/>
       <use xlink:href="#DejaVuSans-73" x="31.787109"/>
       <use xlink:href="#DejaVuSans-74" x="83.886719"/>
       <use xlink:href="#DejaVuSans-75" x="123.095703"/>
       <use xlink:href="#DejaVuSans-20" x="186.474609"/>
      </g>
     </g>
    </g>
    <g id="xtick_6">
     <g id="line2d_6">
      <g>
       <use xlink:href="#m6711e55d1a" x="188.950363" y="419.758125" style="stroke: #000000; stroke-width: 0.8"/>
      </g>
     </g>
     <g id="text_6">
      <!--  ei  -->
      <g transform="translate(191.709738 442.045625) rotate(-90) scale(0.1 -0.1)">
       <use xlink:href="#DejaVuSans-20"/>
       <use xlink:href="#DejaVuSans-65" x="31.787109"/>
       <use xlink:href="#DejaVuSans-69" x="93.310547"/>
       <use xlink:href="#DejaVuSans-20" x="121.09375"/>
      </g>
     </g>
    </g>
    <g id="xtick_7">
     <g id="line2d_7">
      <g>
       <use xlink:href="#m6711e55d1a" x="199.136562" y="419.758125" style="stroke: #000000; stroke-width: 0.8"/>
      </g>
     </g>
     <g id="text_7">
      <!--  pret  -->
      <g transform="translate(201.895937 453.422187) rotate(-90) scale(0.1 -0.1)">
       <defs>
        <path id="DejaVuSans-70" d="M 1159 525 
L 1159 -1331 
L 581 -1331 
L 581 3500 
L 1159 3500 
L 1159 2969 
Q 1341 3281 1617 3432 
Q 1894 3584 2278 3584 
Q 2916 3584 3314 3078 
Q 3713 2572 3713 1747 
Q 3713 922 3314 415 
Q 2916 -91 2278 -91 
Q 1894 -91 1617 61 
Q 1341 213 1159 525 
z
M 3116 1747 
Q 3116 2381 2855 2742 
Q 2594 3103 2138 3103 
Q 1681 3103 1420 2742 
Q 1159 2381 1159 1747 
Q 1159 1113 1420 752 
Q 1681 391 2138 391 
Q 2594 391 2855 752 
Q 3116 1113 3116 1747 
z
" transform="scale(0.015625)"/>
        <path id="DejaVuSans-72" d="M 2631 2963 
Q 2534 3019 2420 3045 
Q 2306 3072 2169 3072 
Q 1681 3072 1420 2755 
Q 1159 2438 1159 1844 
L 1159 0 
L 581 0 
L 581 3500 
L 1159 3500 
L 1159 2956 
Q 1341 3275 1631 3429 
Q 1922 3584 2338 3584 
Q 2397 3584 2469 3576 
Q 2541 3569 2628 3553 
L 2631 2963 
z
" transform="scale(0.015625)"/>
       </defs>
       <use xlink:href="#DejaVuSans-20"/>
       <use xlink:href="#DejaVuSans-70" x="31.787109"/>
       <use xlink:href="#DejaVuSans-72" x="95.263672"/>
       <use xlink:href="#DejaVuSans-65" x="134.126953"/>
       <use xlink:href="#DejaVuSans-74" x="195.650391"/>
       <use xlink:href="#DejaVuSans-20" x="234.859375"/>
      </g>
     </g>
    </g>
    <g id="xtick_8">
     <g id="line2d_8">
      <g>
       <use xlink:href="#m6711e55d1a" x="209.322762" y="419.758125" style="stroke: #000000; stroke-width: 0.8"/>
      </g>
     </g>
     <g id="text_8">
      <!--  zz  -->
      <g transform="translate(212.082137 443.61125) rotate(-90) scale(0.1 -0.1)">
       <defs>
        <path id="DejaVuSans-7a" d="M 353 3500 
L 3084 3500 
L 3084 2975 
L 922 459 
L 3084 459 
L 3084 0 
L 275 0 
L 275 525 
L 2438 3041 
L 353 3041 
L 353 3500 
z
" transform="scale(0.015625)"/>
       </defs>
       <use xlink:href="#DejaVuSans-20"/>
       <use xlink:href="#DejaVuSans-7a" x="31.787109"/>
       <use xlink:href="#DejaVuSans-7a" x="84.277344"/>
       <use xlink:href="#DejaVuSans-20" x="136.767578"/>
      </g>
     </g>
    </g>
    <g id="xtick_9">
     <g id="line2d_9">
      <g>
       <use xlink:href="#m6711e55d1a" x="219.508961" y="419.758125" style="stroke: #000000; stroke-width: 0.8"/>
      </g>
     </g>
     <g id="text_9">
      <!--  zee  -->
      <g transform="translate(222.268336 450.669062) rotate(-90) scale(0.1 -0.1)">
       <use xlink:href="#DejaVuSans-20"/>
       <use xlink:href="#DejaVuSans-7a" x="31.787109"/>
       <use xlink:href="#DejaVuSans-65" x="84.277344"/>
       <use xlink:href="#DejaVuSans-65" x="145.800781"/>
       <use xlink:href="#DejaVuSans-20" x="207.324219"/>
      </g>
     </g>
    </g>
    <g id="xtick_10">
     <g id="line2d_10">
      <g>
       <use xlink:href="#m6711e55d1a" x="229.69516" y="419.758125" style="stroke: #000000; stroke-width: 0.8"/>
      </g>
     </g>
     <g id="text_10">
      <!--  si  -->
      <g transform="translate(232.454535 441.101875) rotate(-90) scale(0.1 -0.1)">
       <use xlink:href="#DejaVuSans-20"/>
       <use xlink:href="#DejaVuSans-73" x="31.787109"/>
       <use xlink:href="#DejaVuSans-69" x="83.886719"/>
       <use xlink:href="#DejaVuSans-20" x="111.669922"/>
      </g>
     </g>
    </g>
    <g id="xtick_11">
     <g id="line2d_11">
      <g>
       <use xlink:href="#m6711e55d1a" x="239.88136" y="419.758125" style="stroke: #000000; stroke-width: 0.8"/>
      </g>
     </g>
     <g id="text_11">
      <!--  chil  -->
      <g transform="translate(242.640735 450.506562) rotate(-90) scale(0.1 -0.1)">
       <defs>
        <path id="DejaVuSans-63" d="M 3122 3366 
L 3122 2828 
Q 2878 2963 2633 3030 
Q 2388 3097 2138 3097 
Q 1578 3097 1268 2742 
Q 959 2388 959 1747 
Q 959 1106 1268 751 
Q 1578 397 2138 397 
Q 2388 397 2633 464 
Q 2878 531 3122 666 
L 3122 134 
Q 2881 22 2623 -34 
Q 2366 -91 2075 -91 
Q 1284 -91 818 406 
Q 353 903 353 1747 
Q 353 2603 823 3093 
Q 1294 3584 2113 3584 
Q 2378 3584 2631 3529 
Q 2884 3475 3122 3366 
z
" transform="scale(0.015625)"/>
        <path id="DejaVuSans-68" d="M 3513 2113 
L 3513 0 
L 2938 0 
L 2938 2094 
Q 2938 2591 2744 2837 
Q 2550 3084 2163 3084 
Q 1697 3084 1428 2787 
Q 1159 2491 1159 1978 
L 1159 0 
L 581 0 
L 581 4863 
L 1159 4863 
L 1159 2956 
Q 1366 3272 1645 3428 
Q 1925 3584 2291 3584 
Q 2894 3584 3203 3211 
Q 3513 2838 3513 2113 
z
" transform="scale(0.015625)"/>
        <path id="DejaVuSans-6c" d="M 603 4863 
L 1178 4863 
L 1178 0 
L 603 0 
L 603 4863 
z
" transform="scale(0.015625)"/>
       </defs>
       <use xlink:href="#DejaVuSans-20"/>
       <use xlink:href="#DejaVuSans-63" x="31.787109"/>
       <use xlink:href="#DejaVuSans-68" x="86.767578"/>
       <use xlink:href="#DejaVuSans-69" x="150.146484"/>
       <use xlink:href="#DejaVuSans-6c" x="177.929688"/>
       <use xlink:href="#DejaVuSans-20" x="205.712891"/>
      </g>
     </g>
    </g>
    <g id="xtick_12">
     <g id="line2d_12">
      <g>
       <use xlink:href="#m6711e55d1a" x="250.067559" y="419.758125" style="stroke: #000000; stroke-width: 0.8"/>
      </g>
     </g>
     <g id="text_12">
      <!--  ne  -->
      <g transform="translate(252.826934 445.605) rotate(-90) scale(0.1 -0.1)">
       <defs>
        <path id="DejaVuSans-6e" d="M 3513 2113 
L 3513 0 
L 2938 0 
L 2938 2094 
Q 2938 2591 2744 2837 
Q 2550 3084 2163 3084 
Q 1697 3084 1428 2787 
Q 1159 2491 1159 1978 
L 1159 0 
L 581 0 
L 581 3500 
L 1159 3500 
L 1159 2956 
Q 1366 3272 1645 3428 
Q 1925 3584 2291 3584 
Q 2894 3584 3203 3211 
Q 3513 2838 3513 2113 
z
" transform="scale(0.015625)"/>
       </defs>
       <use xlink:href="#DejaVuSans-20"/>
       <use xlink:href="#DejaVuSans-6e" x="31.787109"/>
       <use xlink:href="#DejaVuSans-65" x="95.166016"/>
       <use xlink:href="#DejaVuSans-20" x="156.689453"/>
      </g>
     </g>
    </g>
    <g id="xtick_13">
     <g id="line2d_13">
      <g>
       <use xlink:href="#m6711e55d1a" x="260.253758" y="419.758125" style="stroke: #000000; stroke-width: 0.8"/>
      </g>
     </g>
     <g id="text_13">
      <!--  pu  -->
      <g transform="translate(263.013133 445.800312) rotate(-90) scale(0.1 -0.1)">
       <use xlink:href="#DejaVuSans-20"/>
       <use xlink:href="#DejaVuSans-70" x="31.787109"/>
       <use xlink:href="#DejaVuSans-75" x="95.263672"/>
       <use xlink:href="#DejaVuSans-20" x="158.642578"/>
      </g>
     </g>
    </g>
    <g id="xtick_14">
     <g id="line2d_14">
      <g>
       <use xlink:href="#m6711e55d1a" x="270.439958" y="419.758125" style="stroke: #000000; stroke-width: 0.8"/>
      </g>
     </g>
     <g id="text_14">
      <!--  get  -->
      <g transform="translate(273.199333 449.53625) rotate(-90) scale(0.1 -0.1)">
       <defs>
        <path id="DejaVuSans-67" d="M 2906 1791 
Q 2906 2416 2648 2759 
Q 2391 3103 1925 3103 
Q 1463 3103 1205 2759 
Q 947 2416 947 1791 
Q 947 1169 1205 825 
Q 1463 481 1925 481 
Q 2391 481 2648 825 
Q 2906 1169 2906 1791 
z
M 3481 434 
Q 3481 -459 3084 -895 
Q 2688 -1331 1869 -1331 
Q 1566 -1331 1297 -1286 
Q 1028 -1241 775 -1147 
L 775 -588 
Q 1028 -725 1275 -790 
Q 1522 -856 1778 -856 
Q 2344 -856 2625 -561 
Q 2906 -266 2906 331 
L 2906 616 
Q 2728 306 2450 153 
Q 2172 0 1784 0 
Q 1141 0 747 490 
Q 353 981 353 1791 
Q 353 2603 747 3093 
Q 1141 3584 1784 3584 
Q 2172 3584 2450 3431 
Q 2728 3278 2906 2969 
L 2906 3500 
L 3481 3500 
L 3481 434 
z
" transform="scale(0.015625)"/>
       </defs>
       <use xlink:href="#DejaVuSans-20"/>
       <use xlink:href="#DejaVuSans-67" x="31.787109"/>
       <use xlink:href="#DejaVuSans-65" x="95.263672"/>
       <use xlink:href="#DejaVuSans-74" x="156.787109"/>
       <use xlink:href="#DejaVuSans-20" x="195.996094"/>
      </g>
     </g>
    </g>
    <g id="xtick_15">
     <g id="line2d_15">
      <g>
       <use xlink:href="#m6711e55d1a" x="280.626157" y="419.758125" style="stroke: #000000; stroke-width: 0.8"/>
      </g>
     </g>
     <g id="text_15">
      <!--  def  -->
      <g transform="translate(283.385532 449.13625) rotate(-90) scale(0.1 -0.1)">
       <defs>
        <path id="DejaVuSans-66" d="M 2375 4863 
L 2375 4384 
L 1825 4384 
Q 1516 4384 1395 4259 
Q 1275 4134 1275 3809 
L 1275 3500 
L 2222 3500 
L 2222 3053 
L 1275 3053 
L 1275 0 
L 697 0 
L 697 3053 
L 147 3053 
L 147 3500 
L 697 3500 
L 697 3744 
Q 697 4328 969 4595 
Q 1241 4863 1831 4863 
L 2375 4863 
z
" transform="scale(0.015625)"/>
       </defs>
       <use xlink:href="#DejaVuSans-20"/>
       <use xlink:href="#DejaVuSans-64" x="31.787109"/>
       <use xlink:href="#DejaVuSans-65" x="95.263672"/>
       <use xlink:href="#DejaVuSans-66" x="156.787109"/>
       <use xlink:href="#DejaVuSans-20" x="191.992188"/>
      </g>
     </g>
    </g>
    <g id="xtick_16">
     <g id="line2d_16">
      <g>
       <use xlink:href="#m6711e55d1a" x="290.812356" y="419.758125" style="stroke: #000000; stroke-width: 0.8"/>
      </g>
     </g>
     <g id="text_16">
      <!--  tho  -->
      <g transform="translate(293.571731 449.490937) rotate(-90) scale(0.1 -0.1)">
       <use xlink:href="#DejaVuSans-20"/>
       <use xlink:href="#DejaVuSans-74" x="31.787109"/>
       <use xlink:href="#DejaVuSans-68" x="70.996094"/>
       <use xlink:href="#DejaVuSans-6f" x="134.375"/>
       <use xlink:href="#DejaVuSans-20" x="195.556641"/>
      </g>
     </g>
    </g>
    <g id="xtick_17">
     <g id="line2d_17">
      <g>
       <use xlink:href="#m6711e55d1a" x="300.998556" y="419.758125" style="stroke: #000000; stroke-width: 0.8"/>
      </g>
     </g>
     <g id="text_17">
      <!--  beanst  -->
      <g transform="translate(303.757931 467.21125) rotate(-90) scale(0.1 -0.1)">
       <use xlink:href="#DejaVuSans-20"/>
       <use xlink:href="#DejaVuSans-62" x="31.787109"/>
       <use xlink:href="#DejaVuSans-65" x="95.263672"/>
       <use xlink:href="#DejaVuSans-61" x="156.787109"/>
       <use xlink:href="#DejaVuSans-6e" x="218.066406"/>
       <use xlink:href="#DejaVuSans-73" x="281.445312"/>
       <use xlink:href="#DejaVuSans-74" x="333.544922"/>
       <use xlink:href="#DejaVuSans-20" x="372.753906"/>
      </g>
     </g>
    </g>
    <g id="xtick_18">
     <g id="line2d_18">
      <g>
       <use xlink:href="#m6711e55d1a" x="311.184755" y="419.758125" style="stroke: #000000; stroke-width: 0.8"/>
      </g>
     </g>
     <g id="text_18">
      <!--  put  -->
      <g transform="translate(313.94413 449.720625) rotate(-90) scale(0.1 -0.1)">
       <use xlink:href="#DejaVuSans-20"/>
       <use xlink:href="#DejaVuSans-70" x="31.787109"/>
       <use xlink:href="#DejaVuSans-75" x="95.263672"/>
       <use xlink:href="#DejaVuSans-74" x="158.642578"/>
       <use xlink:href="#DejaVuSans-20" x="197.851562"/>
      </g>
     </g>
    </g>
    <g id="xtick_19">
     <g id="line2d_19">
      <g>
       <use xlink:href="#m6711e55d1a" x="321.370954" y="419.758125" style="stroke: #000000; stroke-width: 0.8"/>
      </g>
     </g>
     <g id="text_19">
      <!--  str  -->
      <g transform="translate(324.130329 446.355) rotate(-90) scale(0.1 -0.1)">
       <use xlink:href="#DejaVuSans-20"/>
       <use xlink:href="#DejaVuSans-73" x="31.787109"/>
       <use xlink:href="#DejaVuSans-74" x="83.886719"/>
       <use xlink:href="#DejaVuSans-72" x="123.095703"/>
       <use xlink:href="#DejaVuSans-20" x="164.208984"/>
      </g>
     </g>
    </g>
    <g id="xtick_20">
     <g id="line2d_20">
      <g>
       <use xlink:href="#m6711e55d1a" x="331.557154" y="419.758125" style="stroke: #000000; stroke-width: 0.8"/>
      </g>
     </g>
     <g id="text_20">
      <!--  aga  -->
      <g transform="translate(334.316529 451.719062) rotate(-90) scale(0.1 -0.1)">
       <use xlink:href="#DejaVuSans-20"/>
       <use xlink:href="#DejaVuSans-61" x="31.787109"/>
       <use xlink:href="#DejaVuSans-67" x="93.066406"/>
       <use xlink:href="#DejaVuSans-61" x="156.542969"/>
       <use xlink:href="#DejaVuSans-20" x="217.822266"/>
      </g>
     </g>
    </g>
    <g id="xtick_21">
     <g id="line2d_21">
      <g>
       <use xlink:href="#m6711e55d1a" x="341.743353" y="419.758125" style="stroke: #000000; stroke-width: 0.8"/>
      </g>
     </g>
     <g id="text_21">
      <!--  gon  -->
      <g transform="translate(344.502728 451.919062) rotate(-90) scale(0.1 -0.1)">
       <use xlink:href="#DejaVuSans-20"/>
       <use xlink:href="#DejaVuSans-67" x="31.787109"/>
       <use xlink:href="#DejaVuSans-6f" x="95.263672"/>
       <use xlink:href="#DejaVuSans-6e" x="156.445312"/>
       <use xlink:href="#DejaVuSans-20" x="219.824219"/>
      </g>
     </g>
    </g>
    <g id="xtick_22">
     <g id="line2d_22">
      <g>
       <use xlink:href="#m6711e55d1a" x="351.929552" y="419.758125" style="stroke: #000000; stroke-width: 0.8"/>
      </g>
     </g>
     <g id="text_22">
      <!--  bec  -->
      <g transform="translate(354.688927 451.114375) rotate(-90) scale(0.1 -0.1)">
       <use xlink:href="#DejaVuSans-20"/>
       <use xlink:href="#DejaVuSans-62" x="31.787109"/>
       <use xlink:href="#DejaVuSans-65" x="95.263672"/>
       <use xlink:href="#DejaVuSans-63" x="156.787109"/>
       <use xlink:href="#DejaVuSans-20" x="211.767578"/>
      </g>
     </g>
    </g>
    <g id="xtick_23">
     <g id="line2d_23">
      <g>
       <use xlink:href="#m6711e55d1a" x="362.115752" y="419.758125" style="stroke: #000000; stroke-width: 0.8"/>
      </g>
     </g>
     <g id="text_23">
      <!--  Cal  -->
      <g transform="translate(364.875127 449.003437) rotate(-90) scale(0.1 -0.1)">
       <defs>
        <path id="DejaVuSans-43" d="M 4122 4306 
L 4122 3641 
Q 3803 3938 3442 4084 
Q 3081 4231 2675 4231 
Q 1875 4231 1450 3742 
Q 1025 3253 1025 2328 
Q 1025 1406 1450 917 
Q 1875 428 2675 428 
Q 3081 428 3442 575 
Q 3803 722 4122 1019 
L 4122 359 
Q 3791 134 3420 21 
Q 3050 -91 2638 -91 
Q 1578 -91 968 557 
Q 359 1206 359 2328 
Q 359 3453 968 4101 
Q 1578 4750 2638 4750 
Q 3056 4750 3426 4639 
Q 3797 4528 4122 4306 
z
" transform="scale(0.015625)"/>
       </defs>
       <use xlink:href="#DejaVuSans-20"/>
       <use xlink:href="#DejaVuSans-43" x="31.787109"/>
       <use xlink:href="#DejaVuSans-61" x="101.611328"/>
       <use xlink:href="#DejaVuSans-6c" x="162.890625"/>
       <use xlink:href="#DejaVuSans-20" x="190.673828"/>
      </g>
     </g>
    </g>
    <g id="xtick_24">
     <g id="line2d_24">
      <g>
       <use xlink:href="#m6711e55d1a" x="372.301951" y="419.758125" style="stroke: #000000; stroke-width: 0.8"/>
      </g>
     </g>
     <g id="text_24">
      <!--  alt  -->
      <g transform="translate(375.061326 445.940937) rotate(-90) scale(0.1 -0.1)">
       <use xlink:href="#DejaVuSans-20"/>
       <use xlink:href="#DejaVuSans-61" x="31.787109"/>
       <use xlink:href="#DejaVuSans-6c" x="93.066406"/>
       <use xlink:href="#DejaVuSans-74" x="120.849609"/>
       <use xlink:href="#DejaVuSans-20" x="160.058594"/>
      </g>
     </g>
    </g>
    <g id="xtick_25">
     <g id="line2d_25">
      <g>
       <use xlink:href="#m6711e55d1a" x="382.48815" y="419.758125" style="stroke: #000000; stroke-width: 0.8"/>
      </g>
     </g>
     <g id="text_25">
      <!--  elec  -->
      <g transform="translate(385.247525 453.697187) rotate(-90) scale(0.1 -0.1)">
       <use xlink:href="#DejaVuSans-20"/>
       <use xlink:href="#DejaVuSans-65" x="31.787109"/>
       <use xlink:href="#DejaVuSans-6c" x="93.310547"/>
       <use xlink:href="#DejaVuSans-65" x="121.09375"/>
       <use xlink:href="#DejaVuSans-63" x="182.617188"/>
       <use xlink:href="#DejaVuSans-20" x="237.597656"/>
      </g>
     </g>
    </g>
    <g id="xtick_26">
     <g id="line2d_26">
      <g>
       <use xlink:href="#m6711e55d1a" x="392.67435" y="419.758125" style="stroke: #000000; stroke-width: 0.8"/>
      </g>
     </g>
     <g id="text_26">
      <!--  sma  -->
      <g transform="translate(395.433725 454.1925) rotate(-90) scale(0.1 -0.1)">
       <defs>
        <path id="DejaVuSans-6d" d="M 3328 2828 
Q 3544 3216 3844 3400 
Q 4144 3584 4550 3584 
Q 5097 3584 5394 3201 
Q 5691 2819 5691 2113 
L 5691 0 
L 5113 0 
L 5113 2094 
Q 5113 2597 4934 2840 
Q 4756 3084 4391 3084 
Q 3944 3084 3684 2787 
Q 3425 2491 3425 1978 
L 3425 0 
L 2847 0 
L 2847 2094 
Q 2847 2600 2669 2842 
Q 2491 3084 2119 3084 
Q 1678 3084 1418 2786 
Q 1159 2488 1159 1978 
L 1159 0 
L 581 0 
L 581 3500 
L 1159 3500 
L 1159 2956 
Q 1356 3278 1631 3431 
Q 1906 3584 2284 3584 
Q 2666 3584 2933 3390 
Q 3200 3197 3328 2828 
z
" transform="scale(0.015625)"/>
       </defs>
       <use xlink:href="#DejaVuSans-20"/>
       <use xlink:href="#DejaVuSans-73" x="31.787109"/>
       <use xlink:href="#DejaVuSans-6d" x="83.886719"/>
       <use xlink:href="#DejaVuSans-61" x="181.298828"/>
       <use xlink:href="#DejaVuSans-20" x="242.578125"/>
      </g>
     </g>
    </g>
    <g id="xtick_27">
     <g id="line2d_27">
      <g>
       <use xlink:href="#m6711e55d1a" x="402.860549" y="419.758125" style="stroke: #000000; stroke-width: 0.8"/>
      </g>
     </g>
     <g id="text_27">
      <!--  anoth  -->
      <g transform="translate(405.619924 461.956563) rotate(-90) scale(0.1 -0.1)">
       <use xlink:href="#DejaVuSans-20"/>
       <use xlink:href="#DejaVuSans-61" x="31.787109"/>
       <use xlink:href="#DejaVuSans-6e" x="93.066406"/>
       <use xlink:href="#DejaVuSans-6f" x="156.445312"/>
       <use xlink:href="#DejaVuSans-74" x="217.626953"/>
       <use xlink:href="#DejaVuSans-68" x="256.835938"/>
       <use xlink:href="#DejaVuSans-20" x="320.214844"/>
      </g>
     </g>
    </g>
    <g id="xtick_28">
     <g id="line2d_28">
      <g>
       <use xlink:href="#m6711e55d1a" x="413.046748" y="419.758125" style="stroke: #000000; stroke-width: 0.8"/>
      </g>
     </g>
     <g id="text_28">
      <!--  good  -->
      <g transform="translate(415.806123 458.04875) rotate(-90) scale(0.1 -0.1)">
       <use xlink:href="#DejaVuSans-20"/>
       <use xlink:href="#DejaVuSans-67" x="31.787109"/>
       <use xlink:href="#DejaVuSans-6f" x="95.263672"/>
       <use xlink:href="#DejaVuSans-6f" x="156.445312"/>
       <use xlink:href="#DejaVuSans-64" x="217.626953"/>
       <use xlink:href="#DejaVuSans-20" x="281.103516"/>
      </g>
     </g>
    </g>
    <g id="xtick_29">
     <g id="line2d_29">
      <g>
       <use xlink:href="#m6711e55d1a" x="423.232948" y="419.758125" style="stroke: #000000; stroke-width: 0.8"/>
      </g>
     </g>
     <g id="text_29">
      <!--  oct  -->
      <g transform="translate(425.992323 448.651875) rotate(-90) scale(0.1 -0.1)">
       <use xlink:href="#DejaVuSans-20"/>
       <use xlink:href="#DejaVuSans-6f" x="31.787109"/>
       <use xlink:href="#DejaVuSans-63" x="92.96875"/>
       <use xlink:href="#DejaVuSans-74" x="147.949219"/>
       <use xlink:href="#DejaVuSans-20" x="187.158203"/>
      </g>
     </g>
    </g>
    <g id="xtick_30">
     <g id="line2d_30">
      <g>
       <use xlink:href="#m6711e55d1a" x="433.419147" y="419.758125" style="stroke: #000000; stroke-width: 0.8"/>
      </g>
     </g>
     <g id="text_30">
      <!--  sacon  -->
      <g transform="translate(436.178522 462.406562) rotate(-90) scale(0.1 -0.1)">
       <use xlink:href="#DejaVuSans-20"/>
       <use xlink:href="#DejaVuSans-73" x="31.787109"/>
       <use xlink:href="#DejaVuSans-61" x="83.886719"/>
       <use xlink:href="#DejaVuSans-63" x="145.166016"/>
       <use xlink:href="#DejaVuSans-6f" x="200.146484"/>
       <use xlink:href="#DejaVuSans-6e" x="261.328125"/>
       <use xlink:href="#DejaVuSans-20" x="324.707031"/>
      </g>
     </g>
    </g>
    <g id="xtick_31">
     <g id="line2d_31">
      <g>
       <use xlink:href="#m6711e55d1a" x="443.605346" y="419.758125" style="stroke: #000000; stroke-width: 0.8"/>
      </g>
     </g>
     <g id="text_31">
      <!--  ph  -->
      <g transform="translate(446.364721 445.800312) rotate(-90) scale(0.1 -0.1)">
       <use xlink:href="#DejaVuSans-20"/>
       <use xlink:href="#DejaVuSans-70" x="31.787109"/>
       <use xlink:href="#DejaVuSans-68" x="95.263672"/>
       <use xlink:href="#DejaVuSans-20" x="158.642578"/>
      </g>
     </g>
    </g>
    <g id="xtick_32">
     <g id="line2d_32">
      <g>
       <use xlink:href="#m6711e55d1a" x="453.791546" y="419.758125" style="stroke: #000000; stroke-width: 0.8"/>
      </g>
     </g>
     <g id="text_32">
      <!--  mid  -->
      <g transform="translate(456.550921 451.981562) rotate(-90) scale(0.1 -0.1)">
       <use xlink:href="#DejaVuSans-20"/>
       <use xlink:href="#DejaVuSans-6d" x="31.787109"/>
       <use xlink:href="#DejaVuSans-69" x="129.199219"/>
       <use xlink:href="#DejaVuSans-64" x="156.982422"/>
       <use xlink:href="#DejaVuSans-20" x="220.458984"/>
      </g>
     </g>
    </g>
    <g id="xtick_33">
     <g id="line2d_33">
      <g>
       <use xlink:href="#m6711e55d1a" x="463.977745" y="419.758125" style="stroke: #000000; stroke-width: 0.8"/>
      </g>
     </g>
     <g id="text_33">
      <!--  chris  -->
      <g transform="translate(466.73712 457.04875) rotate(-90) scale(0.1 -0.1)">
       <use xlink:href="#DejaVuSans-20"/>
       <use xlink:href="#DejaVuSans-63" x="31.787109"/>
       <use xlink:href="#DejaVuSans-68" x="86.767578"/>
       <use xlink:href="#DejaVuSans-72" x="150.146484"/>
       <use xlink:href="#DejaVuSans-69" x="191.259766"/>
       <use xlink:href="#DejaVuSans-73" x="219.042969"/>
       <use xlink:href="#DejaVuSans-20" x="271.142578"/>
      </g>
     </g>
    </g>
    <g id="xtick_34">
     <g id="line2d_34">
      <g>
       <use xlink:href="#m6711e55d1a" x="474.163944" y="419.758125" style="stroke: #000000; stroke-width: 0.8"/>
      </g>
     </g>
     <g id="text_34">
      <!--  T  -->
      <g transform="translate(476.923319 439.222187) rotate(-90) scale(0.1 -0.1)">
       <defs>
        <path id="DejaVuSans-54" d="M -19 4666 
L 3928 4666 
L 3928 4134 
L 2272 4134 
L 2272 0 
L 1638 0 
L 1638 4134 
L -19 4134 
L -19 4666 
z
" transform="scale(0.015625)"/>
       </defs>
       <use xlink:href="#DejaVuSans-20"/>
       <use xlink:href="#DejaVuSans-54" x="31.787109"/>
       <use xlink:href="#DejaVuSans-20" x="92.871094"/>
      </g>
     </g>
    </g>
    <g id="xtick_35">
     <g id="line2d_35">
      <g>
       <use xlink:href="#m6711e55d1a" x="484.350144" y="419.758125" style="stroke: #000000; stroke-width: 0.8"/>
      </g>
     </g>
     <g id="text_35">
      <!--  Adri  -->
      <g transform="translate(487.109519 453.0175) rotate(-90) scale(0.1 -0.1)">
       <defs>
        <path id="DejaVuSans-41" d="M 2188 4044 
L 1331 1722 
L 3047 1722 
L 2188 4044 
z
M 1831 4666 
L 2547 4666 
L 4325 0 
L 3669 0 
L 3244 1197 
L 1141 1197 
L 716 0 
L 50 0 
L 1831 4666 
z
" transform="scale(0.015625)"/>
       </defs>
       <use xlink:href="#DejaVuSans-20"/>
       <use xlink:href="#DejaVuSans-41" x="31.787109"/>
       <use xlink:href="#DejaVuSans-64" x="98.445312"/>
       <use xlink:href="#DejaVuSans-72" x="161.921875"/>
       <use xlink:href="#DejaVuSans-69" x="203.035156"/>
       <use xlink:href="#DejaVuSans-20" x="230.818359"/>
      </g>
     </g>
    </g>
    <g id="xtick_36">
     <g id="line2d_36">
      <g>
       <use xlink:href="#m6711e55d1a" x="494.536343" y="419.758125" style="stroke: #000000; stroke-width: 0.8"/>
      </g>
     </g>
     <g id="text_36">
      <!--  overwhe  -->
      <g transform="translate(497.295718 476.084687) rotate(-90) scale(0.1 -0.1)">
       <defs>
        <path id="DejaVuSans-76" d="M 191 3500 
L 800 3500 
L 1894 563 
L 2988 3500 
L 3597 3500 
L 2284 0 
L 1503 0 
L 191 3500 
z
" transform="scale(0.015625)"/>
       </defs>
       <use xlink:href="#DejaVuSans-20"/>
       <use xlink:href="#DejaVuSans-6f" x="31.787109"/>
       <use xlink:href="#DejaVuSans-76" x="92.96875"/>
       <use xlink:href="#DejaVuSans-65" x="152.148438"/>
       <use xlink:href="#DejaVuSans-72" x="213.671875"/>
       <use xlink:href="#DejaVuSans-77" x="254.785156"/>
       <use xlink:href="#DejaVuSans-68" x="336.572266"/>
       <use xlink:href="#DejaVuSans-65" x="399.951172"/>
       <use xlink:href="#DejaVuSans-20" x="461.474609"/>
      </g>
     </g>
    </g>
    <g id="xtick_37">
     <g id="line2d_37">
      <g>
       <use xlink:href="#m6711e55d1a" x="504.722542" y="419.758125" style="stroke: #000000; stroke-width: 0.8"/>
      </g>
     </g>
     <g id="text_37">
      <!--  tandr  -->
      <g transform="translate(507.481917 459.959687) rotate(-90) scale(0.1 -0.1)">
       <use xlink:href="#DejaVuSans-20"/>
       <use xlink:href="#DejaVuSans-74" x="31.787109"/>
       <use xlink:href="#DejaVuSans-61" x="70.996094"/>
       <use xlink:href="#DejaVuSans-6e" x="132.275391"/>
       <use xlink:href="#DejaVuSans-64" x="195.654297"/>
       <use xlink:href="#DejaVuSans-72" x="259.130859"/>
       <use xlink:href="#DejaVuSans-20" x="300.244141"/>
      </g>
     </g>
    </g>
    <g id="xtick_38">
     <g id="line2d_38">
      <g>
       <use xlink:href="#m6711e55d1a" x="514.908742" y="419.758125" style="stroke: #000000; stroke-width: 0.8"/>
      </g>
     </g>
     <g id="text_38">
      <!--  san  -->
      <g transform="translate(517.668117 450.789375) rotate(-90) scale(0.1 -0.1)">
       <use xlink:href="#DejaVuSans-20"/>
       <use xlink:href="#DejaVuSans-73" x="31.787109"/>
       <use xlink:href="#DejaVuSans-61" x="83.886719"/>
       <use xlink:href="#DejaVuSans-6e" x="145.166016"/>
       <use xlink:href="#DejaVuSans-20" x="208.544922"/>
      </g>
     </g>
    </g>
    <g id="xtick_39">
     <g id="line2d_39">
      <g>
       <use xlink:href="#m6711e55d1a" x="525.094941" y="419.758125" style="stroke: #000000; stroke-width: 0.8"/>
      </g>
     </g>
     <g id="text_39">
      <!--  pock  -->
      <g transform="translate(527.854316 456.870625) rotate(-90) scale(0.1 -0.1)">
       <defs>
        <path id="DejaVuSans-6b" d="M 581 4863 
L 1159 4863 
L 1159 1991 
L 2875 3500 
L 3609 3500 
L 1753 1863 
L 3688 0 
L 2938 0 
L 1159 1709 
L 1159 0 
L 581 0 
L 581 4863 
z
" transform="scale(0.015625)"/>
       </defs>
       <use xlink:href="#DejaVuSans-20"/>
       <use xlink:href="#DejaVuSans-70" x="31.787109"/>
       <use xlink:href="#DejaVuSans-6f" x="95.263672"/>
       <use xlink:href="#DejaVuSans-63" x="156.445312"/>
       <use xlink:href="#DejaVuSans-6b" x="211.425781"/>
       <use xlink:href="#DejaVuSans-20" x="269.335938"/>
      </g>
     </g>
    </g>
    <g id="xtick_40">
     <g id="line2d_40">
      <g>
       <use xlink:href="#m6711e55d1a" x="535.28114" y="419.758125" style="stroke: #000000; stroke-width: 0.8"/>
      </g>
     </g>
     <g id="text_40">
      <!--  ridi  -->
      <g transform="translate(538.040515 449.13) rotate(-90) scale(0.1 -0.1)">
       <use xlink:href="#DejaVuSans-20"/>
       <use xlink:href="#DejaVuSans-72" x="31.787109"/>
       <use xlink:href="#DejaVuSans-69" x="72.900391"/>
       <use xlink:href="#DejaVuSans-64" x="100.683594"/>
       <use xlink:href="#DejaVuSans-69" x="164.160156"/>
       <use xlink:href="#DejaVuSans-20" x="191.943359"/>
      </g>
     </g>
    </g>
    <g id="xtick_41">
     <g id="line2d_41">
      <g>
       <use xlink:href="#m6711e55d1a" x="545.46734" y="419.758125" style="stroke: #000000; stroke-width: 0.8"/>
      </g>
     </g>
     <g id="text_41">
      <!--  pr  -->
      <g transform="translate(548.226715 443.57375) rotate(-90) scale(0.1 -0.1)">
       <use xlink:href="#DejaVuSans-20"/>
       <use xlink:href="#DejaVuSans-70" x="31.787109"/>
       <use xlink:href="#DejaVuSans-72" x="95.263672"/>
       <use xlink:href="#DejaVuSans-20" x="136.376953"/>
      </g>
     </g>
    </g>
    <g id="xtick_42">
     <g id="line2d_42">
      <g>
       <use xlink:href="#m6711e55d1a" x="555.653539" y="419.758125" style="stroke: #000000; stroke-width: 0.8"/>
      </g>
     </g>
     <g id="text_42">
      <!--  loo  -->
      <g transform="translate(558.412914 448.13) rotate(-90) scale(0.1 -0.1)">
       <use xlink:href="#DejaVuSans-20"/>
       <use xlink:href="#DejaVuSans-6c" x="31.787109"/>
       <use xlink:href="#DejaVuSans-6f" x="59.570312"/>
       <use xlink:href="#DejaVuSans-6f" x="120.751953"/>
       <use xlink:href="#DejaVuSans-20" x="181.933594"/>
      </g>
     </g>
    </g>
    <g id="xtick_43">
     <g id="line2d_43">
      <g>
       <use xlink:href="#m6711e55d1a" x="565.839738" y="419.758125" style="stroke: #000000; stroke-width: 0.8"/>
      </g>
     </g>
     <g id="text_43">
      <!--  as  -->
      <g transform="translate(568.599113 444.451875) rotate(-90) scale(0.1 -0.1)">
       <use xlink:href="#DejaVuSans-20"/>
       <use xlink:href="#DejaVuSans-61" x="31.787109"/>
       <use xlink:href="#DejaVuSans-73" x="93.066406"/>
       <use xlink:href="#DejaVuSans-20" x="145.166016"/>
      </g>
     </g>
    </g>
    <g id="xtick_44">
     <g id="line2d_44">
      <g>
       <use xlink:href="#m6711e55d1a" x="576.025938" y="419.758125" style="stroke: #000000; stroke-width: 0.8"/>
      </g>
     </g>
     <g id="text_44">
      <!--  goo  -->
      <g transform="translate(578.785313 451.700312) rotate(-90) scale(0.1 -0.1)">
       <use xlink:href="#DejaVuSans-20"/>
       <use xlink:href="#DejaVuSans-67" x="31.787109"/>
       <use xlink:href="#DejaVuSans-6f" x="95.263672"/>
       <use xlink:href="#DejaVuSans-6f" x="156.445312"/>
       <use xlink:href="#DejaVuSans-20" x="217.626953"/>
      </g>
     </g>
    </g>
    <g id="xtick_45">
     <g id="line2d_45">
      <g>
       <use xlink:href="#m6711e55d1a" x="586.212137" y="419.758125" style="stroke: #000000; stroke-width: 0.8"/>
      </g>
     </g>
     <g id="text_45">
      <!--  pro  -->
      <g transform="translate(588.971512 449.4675) rotate(-90) scale(0.1 -0.1)">
       <use xlink:href="#DejaVuSans-20"/>
       <use xlink:href="#DejaVuSans-70" x="31.787109"/>
       <use xlink:href="#DejaVuSans-72" x="95.263672"/>
       <use xlink:href="#DejaVuSans-6f" x="134.126953"/>
       <use xlink:href="#DejaVuSans-20" x="195.308594"/>
      </g>
     </g>
    </g>
    <g id="xtick_46">
     <g id="line2d_46">
      <g>
       <use xlink:href="#m6711e55d1a" x="596.398337" y="419.758125" style="stroke: #000000; stroke-width: 0.8"/>
      </g>
     </g>
     <g id="text_46">
      <!--  haa  -->
      <g transform="translate(599.157712 451.708125) rotate(-90) scale(0.1 -0.1)">
       <use xlink:href="#DejaVuSans-20"/>
       <use xlink:href="#DejaVuSans-68" x="31.787109"/>
       <use xlink:href="#DejaVuSans-61" x="95.166016"/>
       <use xlink:href="#DejaVuSans-61" x="156.445312"/>
       <use xlink:href="#DejaVuSans-20" x="217.724609"/>
      </g>
     </g>
    </g>
    <g id="xtick_47">
     <g id="line2d_47">
      <g>
       <use xlink:href="#m6711e55d1a" x="606.584536" y="419.758125" style="stroke: #000000; stroke-width: 0.8"/>
      </g>
     </g>
     <g id="text_47">
      <!--  rrr  -->
      <g transform="translate(609.343911 445.097187) rotate(-90) scale(0.1 -0.1)">
       <use xlink:href="#DejaVuSans-20"/>
       <use xlink:href="#DejaVuSans-72" x="31.787109"/>
       <use xlink:href="#DejaVuSans-72" x="71.150391"/>
       <use xlink:href="#DejaVuSans-72" x="110.513672"/>
       <use xlink:href="#DejaVuSans-20" x="151.626953"/>
      </g>
     </g>
    </g>
    <g id="xtick_48">
     <g id="line2d_48">
      <g>
       <use xlink:href="#m6711e55d1a" x="616.770735" y="419.758125" style="stroke: #000000; stroke-width: 0.8"/>
      </g>
     </g>
     <g id="text_48">
      <!--  babysit  -->
      <g transform="translate(619.53011 469.765937) rotate(-90) scale(0.1 -0.1)">
       <use xlink:href="#DejaVuSans-20"/>
       <use xlink:href="#DejaVuSans-62" x="31.787109"/>
       <use xlink:href="#DejaVuSans-61" x="95.263672"/>
       <use xlink:href="#DejaVuSans-62" x="156.542969"/>
       <use xlink:href="#DejaVuSans-79" x="220.019531"/>
       <use xlink:href="#DejaVuSans-73" x="279.199219"/>
       <use xlink:href="#DejaVuSans-69" x="331.298828"/>
       <use xlink:href="#DejaVuSans-74" x="359.082031"/>
       <use xlink:href="#DejaVuSans-20" x="398.291016"/>
      </g>
     </g>
    </g>
    <g id="xtick_49">
     <g id="line2d_49">
      <g>
       <use xlink:href="#m6711e55d1a" x="626.956935" y="419.758125" style="stroke: #000000; stroke-width: 0.8"/>
      </g>
     </g>
     <g id="text_49">
      <!--  out  -->
      <g transform="translate(629.71631 449.490937) rotate(-90) scale(0.1 -0.1)">
       <use xlink:href="#DejaVuSans-20"/>
       <use xlink:href="#DejaVuSans-6f" x="31.787109"/>
       <use xlink:href="#DejaVuSans-75" x="92.96875"/>
       <use xlink:href="#DejaVuSans-74" x="156.347656"/>
       <use xlink:href="#DejaVuSans-20" x="195.556641"/>
      </g>
     </g>
    </g>
    <g id="xtick_50">
     <g id="line2d_50">
      <g>
       <use xlink:href="#m6711e55d1a" x="637.143134" y="419.758125" style="stroke: #000000; stroke-width: 0.8"/>
      </g>
     </g>
     <g id="text_50">
      <!--  anti  -->
      <g transform="translate(639.902509 452.278437) rotate(-90) scale(0.1 -0.1)">
       <use xlink:href="#DejaVuSans-20"/>
       <use xlink:href="#DejaVuSans-61" x="31.787109"/>
       <use xlink:href="#DejaVuSans-6e" x="93.066406"/>
       <use xlink:href="#DejaVuSans-74" x="156.445312"/>
       <use xlink:href="#DejaVuSans-69" x="195.654297"/>
       <use xlink:href="#DejaVuSans-20" x="223.4375"/>
      </g>
     </g>
    </g>
    <g id="text_51">
     <!-- &amp;+ Words -->
     <g transform="translate(362.446875 487.683125) scale(0.1 -0.1)">
      <defs>
       <path id="DejaVuSans-26" d="M 1556 2509 
Q 1272 2256 1139 2004 
Q 1006 1753 1006 1478 
Q 1006 1022 1337 719 
Q 1669 416 2169 416 
Q 2466 416 2725 514 
Q 2984 613 3213 813 
L 1556 2509 
z
M 1997 2859 
L 3584 1234 
Q 3769 1513 3872 1830 
Q 3975 2147 3994 2503 
L 4575 2503 
Q 4538 2091 4375 1687 
Q 4213 1284 3922 891 
L 4794 0 
L 4006 0 
L 3559 459 
Q 3234 181 2878 45 
Q 2522 -91 2113 -91 
Q 1359 -91 881 339 
Q 403 769 403 1441 
Q 403 1841 612 2192 
Q 822 2544 1241 2853 
Q 1091 3050 1012 3245 
Q 934 3441 934 3628 
Q 934 4134 1281 4442 
Q 1628 4750 2203 4750 
Q 2463 4750 2720 4694 
Q 2978 4638 3244 4525 
L 3244 3956 
Q 2972 4103 2725 4179 
Q 2478 4256 2266 4256 
Q 1938 4256 1733 4082 
Q 1528 3909 1528 3634 
Q 1528 3475 1620 3314 
Q 1713 3153 1997 2859 
z
" transform="scale(0.015625)"/>
       <path id="DejaVuSans-2b" d="M 2944 4013 
L 2944 2272 
L 4684 2272 
L 4684 1741 
L 2944 1741 
L 2944 0 
L 2419 0 
L 2419 1741 
L 678 1741 
L 678 2272 
L 2419 2272 
L 2419 4013 
L 2944 4013 
z
" transform="scale(0.015625)"/>
       <path id="DejaVuSans-57" d="M 213 4666 
L 850 4666 
L 1831 722 
L 2809 4666 
L 3519 4666 
L 4500 722 
L 5478 4666 
L 6119 4666 
L 4947 0 
L 4153 0 
L 3169 4050 
L 2175 0 
L 1381 0 
L 213 4666 
z
" transform="scale(0.015625)"/>
      </defs>
      <use xlink:href="#DejaVuSans-26"/>
      <use xlink:href="#DejaVuSans-2b" x="77.978516"/>
      <use xlink:href="#DejaVuSans-20" x="161.767578"/>
      <use xlink:href="#DejaVuSans-57" x="193.554688"/>
      <use xlink:href="#DejaVuSans-6f" x="286.556641"/>
      <use xlink:href="#DejaVuSans-72" x="347.738281"/>
      <use xlink:href="#DejaVuSans-64" x="387.101562"/>
      <use xlink:href="#DejaVuSans-73" x="450.578125"/>
     </g>
    </g>
   </g>
   <g id="matplotlib.axis_2">
    <g id="ytick_1">
     <g id="line2d_51">
      <defs>
       <path id="m5cee2b177e" d="M 0 0 
L -3.5 0 
" style="stroke: #000000; stroke-width: 0.8"/>
      </defs>
      <g>
       <use xlink:href="#m5cee2b177e" x="108.58125" y="419.758125" style="stroke: #000000; stroke-width: 0.8"/>
      </g>
     </g>
     <g id="text_52">
      <!-- 0.0 -->
      <g transform="translate(85.678125 423.557344) scale(0.1 -0.1)">
       <defs>
        <path id="DejaVuSans-30" d="M 2034 4250 
Q 1547 4250 1301 3770 
Q 1056 3291 1056 2328 
Q 1056 1369 1301 889 
Q 1547 409 2034 409 
Q 2525 409 2770 889 
Q 3016 1369 3016 2328 
Q 3016 3291 2770 3770 
Q 2525 4250 2034 4250 
z
M 2034 4750 
Q 2819 4750 3233 4129 
Q 3647 3509 3647 2328 
Q 3647 1150 3233 529 
Q 2819 -91 2034 -91 
Q 1250 -91 836 529 
Q 422 1150 422 2328 
Q 422 3509 836 4129 
Q 1250 4750 2034 4750 
z
" transform="scale(0.015625)"/>
        <path id="DejaVuSans-2e" d="M 684 794 
L 1344 794 
L 1344 0 
L 684 0 
L 684 794 
z
" transform="scale(0.015625)"/>
       </defs>
       <use xlink:href="#DejaVuSans-30"/>
       <use xlink:href="#DejaVuSans-2e" x="63.623047"/>
       <use xlink:href="#DejaVuSans-30" x="95.410156"/>
      </g>
     </g>
    </g>
    <g id="ytick_2">
     <g id="line2d_52">
      <g>
       <use xlink:href="#m5cee2b177e" x="108.58125" y="356.398125" style="stroke: #000000; stroke-width: 0.8"/>
      </g>
     </g>
     <g id="text_53">
      <!-- 0.2 -->
      <g transform="translate(85.678125 360.197344) scale(0.1 -0.1)">
       <defs>
        <path id="DejaVuSans-32" d="M 1228 531 
L 3431 531 
L 3431 0 
L 469 0 
L 469 531 
Q 828 903 1448 1529 
Q 2069 2156 2228 2338 
Q 2531 2678 2651 2914 
Q 2772 3150 2772 3378 
Q 2772 3750 2511 3984 
Q 2250 4219 1831 4219 
Q 1534 4219 1204 4116 
Q 875 4013 500 3803 
L 500 4441 
Q 881 4594 1212 4672 
Q 1544 4750 1819 4750 
Q 2544 4750 2975 4387 
Q 3406 4025 3406 3419 
Q 3406 3131 3298 2873 
Q 3191 2616 2906 2266 
Q 2828 2175 2409 1742 
Q 1991 1309 1228 531 
z
" transform="scale(0.015625)"/>
       </defs>
       <use xlink:href="#DejaVuSans-30"/>
       <use xlink:href="#DejaVuSans-2e" x="63.623047"/>
       <use xlink:href="#DejaVuSans-32" x="95.410156"/>
      </g>
     </g>
    </g>
    <g id="ytick_3">
     <g id="line2d_53">
      <g>
       <use xlink:href="#m5cee2b177e" x="108.58125" y="293.038125" style="stroke: #000000; stroke-width: 0.8"/>
      </g>
     </g>
     <g id="text_54">
      <!-- 0.4 -->
      <g transform="translate(85.678125 296.837344) scale(0.1 -0.1)">
       <defs>
        <path id="DejaVuSans-34" d="M 2419 4116 
L 825 1625 
L 2419 1625 
L 2419 4116 
z
M 2253 4666 
L 3047 4666 
L 3047 1625 
L 3713 1625 
L 3713 1100 
L 3047 1100 
L 3047 0 
L 2419 0 
L 2419 1100 
L 313 1100 
L 313 1709 
L 2253 4666 
z
" transform="scale(0.015625)"/>
       </defs>
       <use xlink:href="#DejaVuSans-30"/>
       <use xlink:href="#DejaVuSans-2e" x="63.623047"/>
       <use xlink:href="#DejaVuSans-34" x="95.410156"/>
      </g>
     </g>
    </g>
    <g id="ytick_4">
     <g id="line2d_54">
      <g>
       <use xlink:href="#m5cee2b177e" x="108.58125" y="229.678125" style="stroke: #000000; stroke-width: 0.8"/>
      </g>
     </g>
     <g id="text_55">
      <!-- 0.6 -->
      <g transform="translate(85.678125 233.477344) scale(0.1 -0.1)">
       <defs>
        <path id="DejaVuSans-36" d="M 2113 2584 
Q 1688 2584 1439 2293 
Q 1191 2003 1191 1497 
Q 1191 994 1439 701 
Q 1688 409 2113 409 
Q 2538 409 2786 701 
Q 3034 994 3034 1497 
Q 3034 2003 2786 2293 
Q 2538 2584 2113 2584 
z
M 3366 4563 
L 3366 3988 
Q 3128 4100 2886 4159 
Q 2644 4219 2406 4219 
Q 1781 4219 1451 3797 
Q 1122 3375 1075 2522 
Q 1259 2794 1537 2939 
Q 1816 3084 2150 3084 
Q 2853 3084 3261 2657 
Q 3669 2231 3669 1497 
Q 3669 778 3244 343 
Q 2819 -91 2113 -91 
Q 1303 -91 875 529 
Q 447 1150 447 2328 
Q 447 3434 972 4092 
Q 1497 4750 2381 4750 
Q 2619 4750 2861 4703 
Q 3103 4656 3366 4563 
z
" transform="scale(0.015625)"/>
       </defs>
       <use xlink:href="#DejaVuSans-30"/>
       <use xlink:href="#DejaVuSans-2e" x="63.623047"/>
       <use xlink:href="#DejaVuSans-36" x="95.410156"/>
      </g>
     </g>
    </g>
    <g id="ytick_5">
     <g id="line2d_55">
      <g>
       <use xlink:href="#m5cee2b177e" x="108.58125" y="166.318125" style="stroke: #000000; stroke-width: 0.8"/>
      </g>
     </g>
     <g id="text_56">
      <!-- 0.8 -->
      <g transform="translate(85.678125 170.117344) scale(0.1 -0.1)">
       <defs>
        <path id="DejaVuSans-38" d="M 2034 2216 
Q 1584 2216 1326 1975 
Q 1069 1734 1069 1313 
Q 1069 891 1326 650 
Q 1584 409 2034 409 
Q 2484 409 2743 651 
Q 3003 894 3003 1313 
Q 3003 1734 2745 1975 
Q 2488 2216 2034 2216 
z
M 1403 2484 
Q 997 2584 770 2862 
Q 544 3141 544 3541 
Q 544 4100 942 4425 
Q 1341 4750 2034 4750 
Q 2731 4750 3128 4425 
Q 3525 4100 3525 3541 
Q 3525 3141 3298 2862 
Q 3072 2584 2669 2484 
Q 3125 2378 3379 2068 
Q 3634 1759 3634 1313 
Q 3634 634 3220 271 
Q 2806 -91 2034 -91 
Q 1263 -91 848 271 
Q 434 634 434 1313 
Q 434 1759 690 2068 
Q 947 2378 1403 2484 
z
M 1172 3481 
Q 1172 3119 1398 2916 
Q 1625 2713 2034 2713 
Q 2441 2713 2670 2916 
Q 2900 3119 2900 3481 
Q 2900 3844 2670 4047 
Q 2441 4250 2034 4250 
Q 1625 4250 1398 4047 
Q 1172 3844 1172 3481 
z
" transform="scale(0.015625)"/>
       </defs>
       <use xlink:href="#DejaVuSans-30"/>
       <use xlink:href="#DejaVuSans-2e" x="63.623047"/>
       <use xlink:href="#DejaVuSans-38" x="95.410156"/>
      </g>
     </g>
    </g>
    <g id="ytick_6">
     <g id="line2d_56">
      <g>
       <use xlink:href="#m5cee2b177e" x="108.58125" y="102.958125" style="stroke: #000000; stroke-width: 0.8"/>
      </g>
     </g>
     <g id="text_57">
      <!-- 1.0 -->
      <g transform="translate(85.678125 106.757344) scale(0.1 -0.1)">
       <defs>
        <path id="DejaVuSans-31" d="M 794 531 
L 1825 531 
L 1825 4091 
L 703 3866 
L 703 4441 
L 1819 4666 
L 2450 4666 
L 2450 531 
L 3481 531 
L 3481 0 
L 794 0 
L 794 531 
z
" transform="scale(0.015625)"/>
       </defs>
       <use xlink:href="#DejaVuSans-31"/>
       <use xlink:href="#DejaVuSans-2e" x="63.623047"/>
       <use xlink:href="#DejaVuSans-30" x="95.410156"/>
      </g>
     </g>
    </g>
    <g id="text_58">
     <!-- Frequency -->
     <g transform="translate(79.598438 279.267812) rotate(-90) scale(0.1 -0.1)">
      <defs>
       <path id="DejaVuSans-46" d="M 628 4666 
L 3309 4666 
L 3309 4134 
L 1259 4134 
L 1259 2759 
L 3109 2759 
L 3109 2228 
L 1259 2228 
L 1259 0 
L 628 0 
L 628 4666 
z
" transform="scale(0.015625)"/>
       <path id="DejaVuSans-71" d="M 947 1747 
Q 947 1113 1208 752 
Q 1469 391 1925 391 
Q 2381 391 2643 752 
Q 2906 1113 2906 1747 
Q 2906 2381 2643 2742 
Q 2381 3103 1925 3103 
Q 1469 3103 1208 2742 
Q 947 2381 947 1747 
z
M 2906 525 
Q 2725 213 2448 61 
Q 2172 -91 1784 -91 
Q 1150 -91 751 415 
Q 353 922 353 1747 
Q 353 2572 751 3078 
Q 1150 3584 1784 3584 
Q 2172 3584 2448 3432 
Q 2725 3281 2906 2969 
L 2906 3500 
L 3481 3500 
L 3481 -1331 
L 2906 -1331 
L 2906 525 
z
" transform="scale(0.015625)"/>
      </defs>
      <use xlink:href="#DejaVuSans-46"/>
      <use xlink:href="#DejaVuSans-72" x="50.269531"/>
      <use xlink:href="#DejaVuSans-65" x="89.132812"/>
      <use xlink:href="#DejaVuSans-71" x="150.65625"/>
      <use xlink:href="#DejaVuSans-75" x="214.132812"/>
      <use xlink:href="#DejaVuSans-65" x="277.511719"/>
      <use xlink:href="#DejaVuSans-6e" x="339.035156"/>
      <use xlink:href="#DejaVuSans-63" x="402.414062"/>
      <use xlink:href="#DejaVuSans-79" x="457.394531"/>
     </g>
    </g>
   </g>
   <g id="patch_53">
    <path d="M 108.58125 419.758125 
L 108.58125 87.118125 
" style="fill: none; stroke: #000000; stroke-width: 0.8; stroke-linejoin: miter; stroke-linecap: square"/>
   </g>
   <g id="patch_54">
    <path d="M 666.58125 419.758125 
L 666.58125 87.118125 
" style="fill: none; stroke: #000000; stroke-width: 0.8; stroke-linejoin: miter; stroke-linecap: square"/>
   </g>
   <g id="patch_55">
    <path d="M 108.58125 419.758125 
L 666.58125 419.758125 
" style="fill: none; stroke: #000000; stroke-width: 0.8; stroke-linejoin: miter; stroke-linecap: square"/>
   </g>
   <g id="patch_56">
    <path d="M 108.58125 87.118125 
L 666.58125 87.118125 
" style="fill: none; stroke: #000000; stroke-width: 0.8; stroke-linejoin: miter; stroke-linecap: square"/>
   </g>
   <g id="text_59">
    <!-- &amp;+ Word Frequency Distribution (ALL) -->
    <g transform="translate(273.354375 81.118125) scale(0.12 -0.12)">
     <defs>
      <path id="DejaVuSans-44" d="M 1259 4147 
L 1259 519 
L 2022 519 
Q 2988 519 3436 956 
Q 3884 1394 3884 2338 
Q 3884 3275 3436 3711 
Q 2988 4147 2022 4147 
L 1259 4147 
z
M 628 4666 
L 1925 4666 
Q 3281 4666 3915 4102 
Q 4550 3538 4550 2338 
Q 4550 1131 3912 565 
Q 3275 0 1925 0 
L 628 0 
L 628 4666 
z
" transform="scale(0.015625)"/>
      <path id="DejaVuSans-28" d="M 1984 4856 
Q 1566 4138 1362 3434 
Q 1159 2731 1159 2009 
Q 1159 1288 1364 580 
Q 1569 -128 1984 -844 
L 1484 -844 
Q 1016 -109 783 600 
Q 550 1309 550 2009 
Q 550 2706 781 3412 
Q 1013 4119 1484 4856 
L 1984 4856 
z
" transform="scale(0.015625)"/>
      <path id="DejaVuSans-4c" d="M 628 4666 
L 1259 4666 
L 1259 531 
L 3531 531 
L 3531 0 
L 628 0 
L 628 4666 
z
" transform="scale(0.015625)"/>
      <path id="DejaVuSans-29" d="M 513 4856 
L 1013 4856 
Q 1481 4119 1714 3412 
Q 1947 2706 1947 2009 
Q 1947 1309 1714 600 
Q 1481 -109 1013 -844 
L 513 -844 
Q 928 -128 1133 580 
Q 1338 1288 1338 2009 
Q 1338 2731 1133 3434 
Q 928 4138 513 4856 
z
" transform="scale(0.015625)"/>
     </defs>
     <use xlink:href="#DejaVuSans-26"/>
     <use xlink:href="#DejaVuSans-2b" x="77.978516"/>
     <use xlink:href="#DejaVuSans-20" x="161.767578"/>
     <use xlink:href="#DejaVuSans-57" x="193.554688"/>
     <use xlink:href="#DejaVuSans-6f" x="286.556641"/>
     <use xlink:href="#DejaVuSans-72" x="347.738281"/>
     <use xlink:href="#DejaVuSans-64" x="387.101562"/>
     <use xlink:href="#DejaVuSans-20" x="450.578125"/>
     <use xlink:href="#DejaVuSans-46" x="482.365234"/>
     <use xlink:href="#DejaVuSans-72" x="532.634766"/>
     <use xlink:href="#DejaVuSans-65" x="571.498047"/>
     <use xlink:href="#DejaVuSans-71" x="633.021484"/>
     <use xlink:href="#DejaVuSans-75" x="696.498047"/>
     <use xlink:href="#DejaVuSans-65" x="759.876953"/>
     <use xlink:href="#DejaVuSans-6e" x="821.400391"/>
     <use xlink:href="#DejaVuSans-63" x="884.779297"/>
     <use xlink:href="#DejaVuSans-79" x="939.759766"/>
     <use xlink:href="#DejaVuSans-20" x="998.939453"/>
     <use xlink:href="#DejaVuSans-44" x="1030.726562"/>
     <use xlink:href="#DejaVuSans-69" x="1107.728516"/>
     <use xlink:href="#DejaVuSans-73" x="1135.511719"/>
     <use xlink:href="#DejaVuSans-74" x="1187.611328"/>
     <use xlink:href="#DejaVuSans-72" x="1226.820312"/>
     <use xlink:href="#DejaVuSans-69" x="1267.933594"/>
     <use xlink:href="#DejaVuSans-62" x="1295.716797"/>
     <use xlink:href="#DejaVuSans-75" x="1359.193359"/>
     <use xlink:href="#DejaVuSans-74" x="1422.572266"/>
     <use xlink:href="#DejaVuSans-69" x="1461.78125"/>
     <use xlink:href="#DejaVuSans-6f" x="1489.564453"/>
     <use xlink:href="#DejaVuSans-6e" x="1550.746094"/>
     <use xlink:href="#DejaVuSans-20" x="1614.125"/>
     <use xlink:href="#DejaVuSans-28" x="1645.912109"/>
     <use xlink:href="#DejaVuSans-41" x="1684.925781"/>
     <use xlink:href="#DejaVuSans-4c" x="1753.333984"/>
     <use xlink:href="#DejaVuSans-4c" x="1809.046875"/>
     <use xlink:href="#DejaVuSans-29" x="1864.759766"/>
    </g>
   </g>
  </g>
 </g>
 <defs>
  <clipPath id="pe93c306df5">
   <rect x="108.58125" y="87.118125" width="558" height="332.64"/>
  </clipPath>
 </defs>
</svg>
